<svg width="40" height="40" viewBox="0 0 40 40" fill="none" xmlns="http://www.w3.org/2000/svg">
<path d="M13.9187 22.6934L3.2666 33.3455" stroke="black"/>
<path d="M17.3865 26.1621L6.73438 36.8142" stroke="black"/>
<path d="M6.73513 36.8125C6.27518 37.2725 5.65134 37.5309 5.00087 37.5309C4.35039 37.5309 3.72656 37.2725 3.2666 36.8125" stroke="black" stroke-linecap="round" stroke-linejoin="round"/>
<path d="M3.26621 33.3457C2.80625 33.8057 2.54785 34.4295 2.54785 35.08C2.54785 35.7304 2.80625 36.3543 3.26621 36.8142" stroke="black" stroke-linecap="round" stroke-linejoin="round"/>
<path d="M37.6029 13.5134C37.6029 14.9627 37.3174 16.3979 36.7628 17.737C36.2081 19.076 35.3952 20.2927 34.3703 21.3176C33.3454 22.3424 32.1287 23.1554 30.7897 23.71C29.4507 24.2647 28.0155 24.5502 26.5661 24.5502C25.1167 24.5502 23.6815 24.2647 22.3425 23.71C21.0035 23.1554 19.7868 22.3424 18.7619 21.3176C17.737 20.2927 16.9241 19.076 16.3694 17.737C15.8148 16.3979 15.5293 14.9627 15.5293 13.5134C15.5293 10.5862 16.6921 7.77897 18.7619 5.70917C20.8317 3.63937 23.639 2.47656 26.5661 2.47656C28.0155 2.47656 29.4507 2.76204 30.7897 3.31669C32.1287 3.87134 33.3454 4.68431 34.3703 5.70917C35.3952 6.73403 36.2081 7.95072 36.7628 9.28976C37.3174 10.6288 37.6029 12.064 37.6029 13.5134Z" stroke="black" stroke-linecap="round" stroke-linejoin="round"/>
<path d="M13.918 22.6934L17.3865 26.1619" stroke="black" stroke-linecap="round" stroke-linejoin="round"/>
<path d="M15.6523 24.4277L18.7617 21.3184" stroke="black" stroke-linecap="round" stroke-linejoin="round"/>
<path d="M10.958 25.6523L14.4265 29.1209" stroke="black" stroke-linecap="round" stroke-linejoin="round"/>
<path d="M32.698 13.5137C32.698 15.1399 32.052 16.6994 30.9021 17.8493C29.7522 18.9992 28.1926 19.6452 26.5664 19.6452" stroke="black" stroke-linecap="round" stroke-linejoin="round"/>
</svg>
