<svg width="50" height="50" viewBox="0 0 50 50" fill="none" xmlns="http://www.w3.org/2000/svg">
<path d="M20.4105 6.25C19.0418 6.25 17.8402 6.95313 16.9918 7.86094C16.1434 8.77031 15.5324 9.90625 14.9902 11.1328C14.1605 13.0234 13.5684 15.125 13.0371 17.0906C11.3402 17.5844 9.89961 18.2 8.74023 18.9453C7.38555 19.8188 6.24961 21.0266 6.24961 22.6562C6.24961 24.0719 7.1168 25.2078 8.20273 26.025C9.13086 26.7219 10.2715 27.3016 11.6215 27.7828C11.6996 28.1422 11.8168 28.5094 11.9621 28.8578C10.6449 29.6016 8.55586 31.0422 6.54336 33.7891L5.61523 35.1078L6.93398 36.0344L12.059 39.55L9.96211 43.75H40.0402L37.9402 39.55L43.0684 36.0344L44.3855 35.1078L43.459 33.7891C41.4434 31.0422 39.3574 29.6016 38.0371 28.8578C38.1839 28.5106 38.2989 28.1508 38.3809 27.7828C39.7293 27.3016 40.8699 26.7203 41.798 26.025C42.884 25.2078 43.7512 24.0719 43.7512 22.6562C43.7512 21.0266 42.6152 19.8188 41.2605 18.9453C40.1012 18.2 38.6605 17.5844 36.9637 17.0891C36.3777 15.0516 35.7309 12.9156 34.9137 11.0359C34.3824 9.82031 33.7965 8.70312 32.9605 7.8125C32.1246 6.92188 30.934 6.25 29.5902 6.25C28.6809 6.25 27.9918 6.5 27.2465 6.68906C26.5027 6.87813 25.7512 7.03125 25.0012 7.03125C23.5012 7.03125 22.2418 6.25 20.4105 6.25ZM20.4105 9.375C20.734 9.375 22.6559 10.1562 24.9996 10.1562C26.1715 10.1562 27.2152 9.91875 28.0277 9.71719C28.8387 9.51406 29.4559 9.375 29.5902 9.375C29.9496 9.375 30.2184 9.49062 30.6637 9.96094C31.109 10.4297 31.634 11.2797 32.0793 12.3047C32.9277 14.2453 33.5746 16.8953 34.2777 19.3359C34.2777 19.3297 34.3621 19.2625 34.1309 19.3844C33.7402 19.5984 32.9215 19.8734 31.9324 20.0188C29.9496 20.3188 27.2449 20.3125 24.9996 20.3125C22.7652 20.3125 20.0559 20.2812 18.0652 19.9703C17.0715 19.8188 16.2652 19.5484 15.8684 19.3359C15.7465 19.2688 15.7043 19.2937 15.673 19.2875V19.2391C15.6793 19.2266 15.6668 19.2016 15.673 19.1891L15.7215 19.1406C15.8389 18.9307 15.9063 18.6965 15.9184 18.4563V18.4094C16.4793 16.3328 17.1074 14.1359 17.8715 12.4016C18.3277 11.3594 18.823 10.5109 19.2871 10.0109C19.7512 9.51094 20.0684 9.375 20.4105 9.375ZM12.7918 20.4594C13.1465 21.1922 13.7699 21.7781 14.4043 22.1188C15.3574 22.625 16.448 22.8641 17.6262 23.0469C19.9824 23.4125 22.7418 23.4375 24.9996 23.4375C27.2465 23.4375 30.0105 23.45 32.373 23.0953C33.5574 22.9188 34.6371 22.6875 35.5949 22.1672C36.2355 21.8203 36.859 21.2031 37.2074 20.4594C38.1715 20.8016 38.9824 21.1672 39.5512 21.5328C40.4605 22.1188 40.6246 22.5531 40.6246 22.6562C40.6246 22.7484 40.5465 23.0469 39.8918 23.5359C39.2387 24.0234 38.1168 24.5906 36.6699 25.0484C33.7762 25.9703 29.6137 26.5625 24.9996 26.5625C20.3855 26.5625 16.223 25.9703 13.3293 25.0484C11.8824 24.5906 10.7605 24.0234 10.1074 23.5359C9.45273 23.0469 9.37461 22.7484 9.37461 22.6562C9.37461 22.5531 9.49648 22.1625 10.3996 21.5813C10.9684 21.2156 11.8027 20.8187 12.7918 20.4594ZM16.8449 29.0047C17.3574 29.0891 17.8652 29.2297 18.4074 29.2969C18.6105 30.6703 19.6777 31.8781 21.3855 31.9828C22.7043 32.0609 24.1871 31.4391 24.3168 29.6875H25.684C25.8121 31.4391 27.2934 32.0625 28.6137 31.9828C30.3215 31.8781 31.3902 30.6703 31.5918 29.2969C32.134 29.2297 32.6418 29.0891 33.1543 29.0031L33.0074 29.9797C32.5246 32.55 31.3777 34.9297 29.9309 36.5734C28.484 38.2125 26.7887 39.0859 24.9996 39.0625C23.1621 39.0375 21.5027 38.1531 20.0684 36.5234C18.634 34.8937 17.5059 32.5625 16.9918 29.9797L16.8449 29.0047ZM35.9371 31.25C36.5168 31.5922 38.0434 32.5938 39.7949 34.5219L35.0574 37.7922L33.9355 38.5266L34.5215 39.7453L34.9605 40.625H30.0293C30.8596 40.0557 31.614 39.3831 32.2746 38.6234C33.9965 36.6703 35.1496 34.1125 35.7902 31.3469C35.8449 31.3172 35.8887 31.2812 35.9371 31.25ZM14.0137 31.2984C14.0746 31.3359 14.148 31.3609 14.209 31.3969C14.8809 34.125 16.0277 36.6516 17.7246 38.5734C18.4262 39.3734 19.2434 40.0578 20.1168 40.625H15.0387L15.4777 39.7453L16.0637 38.5266L14.9402 37.7922L10.2059 34.5219C11.859 32.6969 13.3668 31.6891 14.0137 31.2984Z" fill="black"/>
</svg>
